<?xml version="1.0" encoding="UTF-8" standalone="no"?>
<!-- Created with Inkscape (http://www.inkscape.org/) -->

<svg
   
   viewBox="0 0 323.44466 323.44467"
   version="1.1"
   id="svg5"
   inkscape:version="1.1 (c68e22c387, 2021-05-23)"
   sodipodi:docname="pracovna-finished_bila.svg"
   xmlns:inkscape="http://www.inkscape.org/namespaces/inkscape"
   xmlns:sodipodi="http://sodipodi.sourceforge.net/DTD/sodipodi-0.dtd"
   xmlns="http://www.w3.org/2000/svg"
   xmlns:svg="http://www.w3.org/2000/svg">
  <sodipodi:namedview
     id="namedview7"
     pagecolor="#ffffff"
     bordercolor="#666666"
     borderopacity="1.0"
     inkscape:pageshadow="2"
     inkscape:pageopacity="0.0"
     inkscape:pagecheckerboard="0"
     inkscape:document-units="px"
     showgrid="false"
     showborder="true"
     inkscape:zoom="0.62"
     inkscape:cx="412.90323"
     inkscape:cy="513.70968"
     inkscape:window-width="1920"
     inkscape:window-height="1051"
     inkscape:window-x="-9"
     inkscape:window-y="-9"
     inkscape:window-maximized="1"
     inkscape:current-layer="layer23"
     showguides="false"
     units="px" />
  <defs
     id="defs2" />
  <g
     inkscape:groupmode="layer"
     id="layer23"
     inkscape:label="pozadí 1">
    <circle
       style="fill:#ffffff"
       id="path4881"
       cx="161.72234"
       cy="161.72234"
       r="161.72234" />
  </g>
  <g
     inkscape:groupmode="layer"
     id="layer21"
     inkscape:label="počítač"
     sodipodi:insensitive="true">
    <g
       inkscape:groupmode="layer"
       id="layer10"
       inkscape:label="spodek počítače"
       sodipodi:insensitive="true">
      <path
         style="fill:#e6e6e6;stroke:#000000;stroke-width:0.264583px;stroke-linecap:butt;stroke-linejoin:miter;stroke-opacity:1"
         d="m 70.064706,235.54463 c 0,0 -1.309621,8.2319 8.606078,7.10937 l 52.291286,0.37418 c 0,0 2.33861,-1.30962 3.27405,-1.12253 l 18.05406,0.0234 c 0,0 1.49671,0.0234 2.6894,1.07575 l 55.121,-0.18709 c 0,0 5.47234,-0.42095 5.28525,-5.35541 l -4.60706,-79.39576 c 0,0 -0.84189,-2.8531 -2.87648,-3.04019 l -11.2838,-0.84041 c 0,0 0.8599,3.14193 0.29766,3.27422 L 92.17422,156.86485 c 0,0 -0.595313,0.0331 -0.198438,-2.64584 l -10.153385,-0.16536 c 0,0 -4.299479,1.15755 -4.431771,7.17682 z"
         id="path1535" />
    </g>
    <g
       inkscape:groupmode="layer"
       id="layer11"
       inkscape:label="touchpad"
       sodipodi:insensitive="true">
      <path
         style="fill:#cccccc;stroke:#000000;stroke-width:0.264583px;stroke-linecap:butt;stroke-linejoin:miter;stroke-opacity:1"
         d="m 119.40934,236.99457 c 0,0 0.0468,1.63703 2.19829,1.35639 l 43.59167,0.14032 c 0,0 0.98221,0.0936 1.26285,-1.40316 l -0.0936,-28.5778 c 0,0 -0.0467,-1.54348 -2.15147,-1.44993 h -42.42235 c 0,0 -1.02899,0.42095 -1.30963,1.30962 z"
         id="path1682" />
    </g>
    <g
       inkscape:groupmode="layer"
       id="layer12"
       inkscape:label="ohraničení klavesnice"
       sodipodi:insensitive="true">
      <g
         inkscape:groupmode="layer"
         id="layer15"
         inkscape:label="spaceabr"
         sodipodi:insensitive="true">
        <path
           style="fill:#000000;stroke:#000000;stroke-width:0.264583px;stroke-linecap:butt;stroke-linejoin:miter;stroke-opacity:1"
           d="m 119.9706,194.29157 -0.1637,5.98684 c 0,0 0.11693,0.53789 0.86529,0.46773 l 37.79191,-0.0468 c 0,0 0.95883,0.0234 0.95883,-0.86526 v -5.14494 c 0,0 0,-0.67819 -0.93544,-0.64312 l -37.66329,-0.17539 c 0,0 -0.79514,-0.0936 -0.8536,0.42094 z"
           id="path1098" />
      </g>
      <g
         inkscape:groupmode="layer"
         id="layer16"
         inkscape:label="alt gr"
         sodipodi:insensitive="true">
        <path
           style="fill:#000000;stroke:#000000;stroke-width:0.264583px;stroke-linecap:butt;stroke-linejoin:miter;stroke-opacity:1"
           d="m 160.94302,194.47866 -0.0468,5.42558 c 0,0 3e-5,0.79513 0.725,0.65481 h 7.36662 c 0,0 0.53788,-0.0234 0.56126,-0.70158 l 0.0468,-5.14494 c 0,0 -0.18711,-0.72497 -0.81854,-0.79513 l -7.27307,-0.1637 c 0,0 -0.53789,0.28062 -0.56127,0.72496 z"
           id="path1330" />
      </g>
      <g
         inkscape:groupmode="layer"
         id="layer17"
         inkscape:label="button space"
         sodipodi:insensitive="true">
        <path
           style="fill:#000000;stroke:#000000;stroke-width:0.264583px;stroke-linecap:butt;stroke-linejoin:miter;stroke-opacity:1"
           d="m 171.18541,194.33645 -0.0331,5.85391 c 0,0 -0.13226,0.46302 0.85993,0.42995 h 5.15937 c 0,0 0.76068,0.13229 0.76068,-0.76068 v -5.32474 c 0,0 -0.13229,-0.66146 -0.89297,-0.66146 l -5.39089,-0.13229 c 0,0 -0.56224,0.26458 -0.46302,0.59531 z"
           id="path1540" />
      </g>
      <g
         inkscape:groupmode="layer"
         id="layer18"
         inkscape:label="middle sized buttons"
         sodipodi:insensitive="true">
        <path
           style="fill:#000000;stroke:#000000;stroke-width:0.264583px;stroke-linecap:butt;stroke-linejoin:miter;stroke-opacity:1"
           d="m 152.79687,187.39114 -0.0662,4.63021 c 0,0 -0.0661,0.56224 0.95917,0.59531 h 4.92786 c 0,0 0.8599,-0.39687 0.79375,-0.99219 l 0.0331,-3.9026 c 0,0 -0.13231,-0.76068 -0.66148,-0.79375 l -5.29167,-0.13229 c 0,0 -0.62839,0.26458 -0.69453,0.59531 z"
           id="path1576" />
        <path
           style="fill:#000000;stroke:#000000;stroke-width:0.264583px;stroke-linecap:butt;stroke-linejoin:miter;stroke-opacity:1"
           d="m 144.61129,187.45763 -0.0662,4.63021 c 0,0 -0.0661,0.56224 0.95917,0.59531 h 4.92786 c 0,0 0.8599,-0.39687 0.79375,-0.99219 l 0.0331,-3.9026 c 0,0 -0.13231,-0.76068 -0.66148,-0.79375 l -5.29167,-0.13229 c 0,0 -0.62839,0.26458 -0.69453,0.59531 z"
           id="path1576-5" />
        <path
           style="fill:#000000;stroke:#000000;stroke-width:0.264583px;stroke-linecap:butt;stroke-linejoin:miter;stroke-opacity:1"
           d="m 136.50843,187.52376 -0.0662,4.63021 c 0,0 -0.0661,0.56224 0.95917,0.59531 h 4.92786 c 0,0 0.8599,-0.39687 0.79375,-0.99219 l 0.0331,-3.9026 c 0,0 -0.13231,-0.76068 -0.66148,-0.79375 l -5.29167,-0.13229 c 0,0 -0.62839,0.26458 -0.69453,0.59531 z"
           id="path1576-3" />
        <path
           style="fill:#000000;stroke:#000000;stroke-width:0.264583px;stroke-linecap:butt;stroke-linejoin:miter;stroke-opacity:1"
           d="m 128.50478,187.32533 -0.0662,4.63021 c 0,0 -0.0661,0.56224 0.95917,0.59531 h 4.92786 c 0,0 0.8599,-0.39687 0.79375,-0.99219 l 0.0331,-3.9026 c 0,0 -0.13231,-0.76068 -0.66148,-0.79375 l -5.29167,-0.13229 c 0,0 -0.62839,0.26458 -0.69453,0.59531 z"
           id="path1576-3-2" />
        <path
           style="fill:#000000;stroke:#000000;stroke-width:0.264583px;stroke-linecap:butt;stroke-linejoin:miter;stroke-opacity:1"
           d="m 120.30269,187.39147 -0.0662,4.63021 c 0,0 -0.0661,0.56224 0.95917,0.59531 h 4.92786 c 0,0 0.8599,-0.39687 0.79375,-0.99219 l 0.0331,-3.9026 c 0,0 -0.13231,-0.76068 -0.66148,-0.79375 l -5.29167,-0.13229 c 0,0 -0.62839,0.26458 -0.69453,0.59531 z"
           id="path1576-3-0" />
        <path
           style="fill:#000000;stroke:#000000;stroke-width:0.264583px;stroke-linecap:butt;stroke-linejoin:miter;stroke-opacity:1"
           d="m 112.03446,187.3584 -0.0662,4.63021 c 0,0 -0.0661,0.56224 0.95917,0.59531 h 4.92786 c 0,0 0.8599,-0.39687 0.79375,-0.99219 l 0.0331,-3.9026 c 0,0 -0.13231,-0.76068 -0.66148,-0.79375 l -5.29167,-0.13229 c 0,0 -0.62839,0.26458 -0.69453,0.59531 z"
           id="path1576-3-7" />
        <path
           style="fill:#000000;stroke:#000000;stroke-width:0.264583px;stroke-linecap:butt;stroke-linejoin:miter;stroke-opacity:1"
           d="m 104.13004,187.39147 -0.0662,4.63021 c 0,0 -0.0661,0.56224 0.95917,0.59531 h 4.92786 c 0,0 0.8599,-0.39687 0.79375,-0.99219 l 0.0331,-3.9026 c 0,0 -0.13231,-0.76068 -0.66148,-0.79375 l -5.29167,-0.13229 c 0,0 -0.62839,0.26458 -0.69453,0.59531 z"
           id="path1576-3-4" />
        <path
           style="fill:#000000;stroke:#000000;stroke-width:0.264583px;stroke-linecap:butt;stroke-linejoin:miter;stroke-opacity:1"
           d="m 100.32665,180.14851 -0.0662,4.63021 c 0,0 -0.0661,0.56224 0.95917,0.59531 h 4.92786 c 0,0 0.8599,-0.39687 0.79375,-0.99219 l 0.0331,-3.9026 c 0,0 -0.13231,-0.76068 -0.66148,-0.79375 l -5.29167,-0.13229 c 0,0 -0.62839,0.26458 -0.69453,0.59531 z"
           id="path1576-3-6" />
        <path
           style="fill:#000000;stroke:#000000;stroke-width:0.264583px;stroke-linecap:butt;stroke-linejoin:miter;stroke-opacity:1"
           d="m 108.46259,180.24772 -0.0662,4.63021 c 0,0 -0.0661,0.56224 0.95917,0.59531 h 4.92786 c 0,0 0.8599,-0.39687 0.79375,-0.99219 l 0.0331,-3.9026 c 0,0 -0.13231,-0.76068 -0.66148,-0.79375 l -5.29167,-0.13229 c 0,0 -0.62839,0.26458 -0.69453,0.59531 z"
           id="path1576-3-28" />
        <path
           style="fill:#000000;stroke:#000000;stroke-width:0.264583px;stroke-linecap:butt;stroke-linejoin:miter;stroke-opacity:1"
           d="m 116.6316,180.18158 -0.0662,4.63021 c 0,0 -0.0661,0.56224 0.95917,0.59531 h 4.92786 c 0,0 0.8599,-0.39687 0.79375,-0.99219 l 0.0331,-3.9026 c 0,0 -0.13231,-0.76068 -0.66148,-0.79375 l -5.29167,-0.13229 c 0,0 -0.62839,0.26458 -0.69453,0.59531 z"
           id="path1576-3-3" />
        <path
           style="fill:#000000;stroke:#000000;stroke-width:0.264583px;stroke-linecap:butt;stroke-linejoin:miter;stroke-opacity:1"
           d="m 124.66831,180.24772 -0.0662,4.63021 c 0,0 -0.0661,0.56224 0.95917,0.59531 h 4.92786 c 0,0 0.8599,-0.39687 0.79375,-0.99219 l 0.0331,-3.9026 c 0,0 -0.13231,-0.76068 -0.66148,-0.79375 l -5.29167,-0.13229 c 0,0 -0.62839,0.26458 -0.69453,0.59531 z"
           id="path1576-3-09" />
        <path
           style="fill:#000000;stroke:#000000;stroke-width:0.264583px;stroke-linecap:butt;stroke-linejoin:miter;stroke-opacity:1"
           d="m 132.60583,180.28079 -0.0662,4.63021 c 0,0 -0.0661,0.56224 0.95917,0.59531 h 4.92786 c 0,0 0.8599,-0.39687 0.79375,-0.99219 l 0.0331,-3.9026 c 0,0 -0.13231,-0.76068 -0.66148,-0.79375 l -5.29167,-0.13229 c 0,0 -0.62839,0.26458 -0.69453,0.59531 z"
           id="path1576-3-9" />
        <path
           style="fill:#000000;stroke:#000000;stroke-width:0.264583px;stroke-linecap:butt;stroke-linejoin:miter;stroke-opacity:1"
           d="m 140.90711,180.2808 -0.0662,4.63021 c 0,0 -0.0661,0.56224 0.95917,0.59531 h 4.92786 c 0,0 0.8599,-0.39687 0.79375,-0.99219 l 0.0331,-3.9026 c 0,0 -0.13231,-0.76068 -0.66148,-0.79375 l -5.29167,-0.13229 c 0,0 -0.62839,0.26458 -0.69453,0.59531 z"
           id="path1576-3-8" />
        <path
           style="fill:#000000;stroke:#000000;stroke-width:0.264583px;stroke-linecap:butt;stroke-linejoin:miter;stroke-opacity:1"
           d="m 148.58004,180.11543 -0.0662,4.63021 c 0,0 -0.0661,0.56224 0.95917,0.59531 h 4.92786 c 0,0 0.8599,-0.39687 0.79375,-0.99219 l 0.0331,-3.9026 c 0,0 -0.13231,-0.76068 -0.66148,-0.79375 l -5.29167,-0.13229 c 0,0 -0.62839,0.26458 -0.69453,0.59531 z"
           id="path1576-3-42" />
        <path
           style="fill:#000000;stroke:#000000;stroke-width:0.264583px;stroke-linecap:butt;stroke-linejoin:miter;stroke-opacity:1"
           d="m 156.8152,180.41309 -0.0662,4.63021 c 0,0 -0.0661,0.56224 0.95917,0.59531 h 4.92786 c 0,0 0.8599,-0.39687 0.79375,-0.99219 l 0.0331,-3.9026 c 0,0 -0.13231,-0.76068 -0.66148,-0.79375 l -5.29167,-0.13229 c 0,0 -0.62839,0.26458 -0.69453,0.59531 z"
           id="path1576-3-88" />
        <path
           style="fill:#000000;stroke:#000000;stroke-width:0.264583px;stroke-linecap:butt;stroke-linejoin:miter;stroke-opacity:1"
           d="m 164.85191,180.38002 -0.0662,4.63021 c 0,0 -0.0661,0.56224 0.95917,0.59531 h 4.92786 c 0,0 0.8599,-0.39687 0.79375,-0.99219 l 0.0331,-3.9026 c 0,0 -0.13231,-0.76068 -0.66148,-0.79375 l -5.29167,-0.13229 c 0,0 -0.62839,0.26458 -0.69453,0.59531 z"
           id="path1576-3-08" />
        <path
           style="fill:#000000;stroke:#000000;stroke-width:0.264583px;stroke-linecap:butt;stroke-linejoin:miter;stroke-opacity:1"
           d="m 160.98238,187.45762 -0.0662,4.63021 c 0,0 -0.0661,0.56224 0.95917,0.59531 h 4.92786 c 0,0 0.8599,-0.39687 0.79375,-0.99219 l 0.0331,-3.9026 c 0,0 -0.13231,-0.76068 -0.66148,-0.79375 l -5.29167,-0.13229 c 0,0 -0.62839,0.26458 -0.69453,0.59531 z"
           id="path1576-3-04" />
        <path
           style="fill:#000000;stroke:#000000;stroke-width:0.264583px;stroke-linecap:butt;stroke-linejoin:miter;stroke-opacity:1"
           d="m 169.0191,187.42455 -0.0662,4.63021 c 0,0 -0.0661,0.56224 0.95917,0.59531 h 4.92786 c 0,0 0.8599,-0.39687 0.79375,-0.99219 l 0.0331,-3.9026 c 0,0 -0.13231,-0.76068 -0.66148,-0.79375 l -5.29167,-0.13229 c 0,0 -0.62839,0.26458 -0.69453,0.59531 z"
           id="path1576-3-77" />
        <path
           style="fill:#000000;stroke:#000000;stroke-width:0.264583px;stroke-linecap:butt;stroke-linejoin:miter;stroke-opacity:1"
           d="m 177.12196,187.49069 -0.0662,4.63021 c 0,0 -0.0661,0.56224 0.95917,0.59531 h 4.92786 c 0,0 0.8599,-0.39687 0.79375,-0.99219 l 0.0331,-3.9026 c 0,0 -0.13231,-0.76068 -0.66148,-0.79375 l -5.29167,-0.13229 c 0,0 -0.62839,0.26458 -0.69453,0.59531 z"
           id="path1576-3-41" />
        <path
           style="fill:#000000;stroke:#000000;stroke-width:0.264583px;stroke-linecap:butt;stroke-linejoin:miter;stroke-opacity:1"
           d="m 172.9217,180.2808 -0.0662,4.63021 c 0,0 -0.0661,0.56224 0.95917,0.59531 h 4.92786 c 0,0 0.8599,-0.39687 0.79375,-0.99219 l 0.0331,-3.9026 c 0,0 -0.13231,-0.76068 -0.66148,-0.79375 l -5.29167,-0.13229 c 0,0 -0.62839,0.26458 -0.69453,0.59531 z"
           id="path1576-3-65" />
        <path
           style="fill:#000000;stroke:#000000;stroke-width:0.264583px;stroke-linecap:butt;stroke-linejoin:miter;stroke-opacity:1"
           d="m 180.82612,180.14851 -0.0662,4.63021 c 0,0 -0.0661,0.56224 0.95917,0.59531 h 4.92786 c 0,0 0.8599,-0.39687 0.79375,-0.99219 l 0.0331,-3.9026 c 0,0 -0.13231,-0.76068 -0.66148,-0.79375 l -5.29167,-0.13229 c 0,0 -0.62839,0.26458 -0.69453,0.59531 z"
           id="path1576-3-74" />
        <path
           style="fill:#000000;stroke:#000000;stroke-width:0.264583px;stroke-linecap:butt;stroke-linejoin:miter;stroke-opacity:1"
           d="m 186.81233,173.43471 -0.0662,4.63021 c 0,0 -0.0661,0.56224 0.95917,0.59531 h 4.92786 c 0,0 0.8599,-0.39687 0.79375,-0.99219 l 0.0331,-3.9026 c 0,0 -0.13231,-0.76068 -0.66148,-0.79375 l -5.29167,-0.13229 c 0,0 -0.62839,0.26458 -0.69453,0.59531 z"
           id="path1576-3-75" />
        <path
           style="fill:#000000;stroke:#000000;stroke-width:0.264583px;stroke-linecap:butt;stroke-linejoin:miter;stroke-opacity:1"
           d="m 194.74983,173.40163 -0.0662,4.63021 c 0,0 -0.0661,0.56224 0.95917,0.59531 h 4.92786 c 0,0 0.8599,-0.39687 0.79375,-0.99219 l 0.0331,-3.9026 c 0,0 -0.13231,-0.76068 -0.66148,-0.79375 l -5.29167,-0.13229 c 0,0 -0.62839,0.26458 -0.69453,0.59531 z"
           id="path1576-3-5" />
        <path
           style="fill:#000000;stroke:#000000;stroke-width:0.264583px;stroke-linecap:butt;stroke-linejoin:miter;stroke-opacity:1"
           d="m 178.67638,173.53393 -0.0662,4.63021 c 0,0 -0.0661,0.56224 0.95917,0.59531 h 4.92786 c 0,0 0.8599,-0.39687 0.79375,-0.99219 l 0.0331,-3.9026 c 0,0 -0.13231,-0.76068 -0.66148,-0.79375 l -5.29167,-0.13229 c 0,0 -0.62839,0.26458 -0.69453,0.59531 z"
           id="path1576-3-76" />
        <path
           style="fill:#000000;stroke:#000000;stroke-width:0.264583px;stroke-linecap:butt;stroke-linejoin:miter;stroke-opacity:1"
           d="m 170.40815,173.33548 -0.0662,4.63021 c 0,0 -0.0661,0.56224 0.95917,0.59531 h 4.92786 c 0,0 0.85991,-0.39687 0.79375,-0.99219 l 0.0331,-3.9026 c 0,0 -0.13231,-0.76068 -0.66148,-0.79375 l -5.29167,-0.13229 c 0,0 -0.62839,0.26458 -0.69453,0.59531 z"
           id="path1576-3-72" />
        <path
           style="fill:#000000;stroke:#000000;stroke-width:0.264583px;stroke-linecap:butt;stroke-linejoin:miter;stroke-opacity:1"
           d="m 162.80139,173.36856 -0.0662,4.63021 c 0,0 -0.0661,0.56224 0.95917,0.59531 h 4.92786 c 0,0 0.8599,-0.39687 0.79375,-0.99219 l 0.0331,-3.9026 c 0,0 -0.13231,-0.76068 -0.66148,-0.79375 l -5.29167,-0.13229 c 0,0 -0.62839,0.26458 -0.69453,0.59531 z"
           id="path1576-3-40" />
        <path
           style="fill:#000000;stroke:#000000;stroke-width:0.264583px;stroke-linecap:butt;stroke-linejoin:miter;stroke-opacity:1"
           d="m 154.73159,173.50085 -0.0662,4.63021 c 0,0 -0.0661,0.56224 0.95917,0.59531 h 4.92786 c 0,0 0.8599,-0.39687 0.79375,-0.99219 l 0.0331,-3.9026 c 0,0 -0.13231,-0.76068 -0.66148,-0.79375 l -5.29167,-0.13229 c 0,0 -0.62839,0.26458 -0.69453,0.59531 z"
           id="path1576-3-96" />
        <path
           style="fill:#000000;stroke:#000000;stroke-width:0.264583px;stroke-linecap:butt;stroke-linejoin:miter;stroke-opacity:1"
           d="m 146.72795,173.33549 -0.0662,4.63021 c 0,0 -0.0661,0.56224 0.95917,0.59531 h 4.92786 c 0,0 0.8599,-0.39687 0.79375,-0.99219 l 0.0331,-3.9026 c 0,0 -0.13231,-0.76068 -0.66148,-0.79375 l -5.29167,-0.13229 c 0,0 -0.62839,0.26458 -0.69453,0.59531 z"
           id="path1576-3-71" />
        <path
           style="fill:#000000;stroke:#000000;stroke-width:0.264583px;stroke-linecap:butt;stroke-linejoin:miter;stroke-opacity:1"
           d="m 138.88967,173.36856 -0.0662,4.63021 c 0,0 -0.0661,0.56224 0.95917,0.59531 h 4.92786 c 0,0 0.8599,-0.39687 0.79375,-0.99219 l 0.0331,-3.9026 c 0,0 -0.13231,-0.76068 -0.66148,-0.79375 l -5.29167,-0.13229 c 0,0 -0.62839,0.26458 -0.69453,0.59531 z"
           id="path1576-3-86" />
        <path
           style="fill:#000000;stroke:#000000;stroke-width:0.264583px;stroke-linecap:butt;stroke-linejoin:miter;stroke-opacity:1"
           d="m 130.88603,173.36856 -0.0662,4.63021 c 0,0 -0.0661,0.56224 0.95917,0.59531 h 4.92786 c 0,0 0.8599,-0.39687 0.79375,-0.99219 l 0.0331,-3.9026 c 0,0 -0.13231,-0.76068 -0.66148,-0.79375 l -5.29167,-0.13229 c 0,0 -0.62839,0.26458 -0.69453,0.59531 z"
           id="path1576-3-21" />
        <path
           style="fill:#000000;stroke:#000000;stroke-width:0.264583px;stroke-linecap:butt;stroke-linejoin:miter;stroke-opacity:1"
           d="m 123.04774,173.30241 -0.0662,4.63021 c 0,0 -0.0661,0.56224 0.95917,0.59531 h 4.92786 c 0,0 0.8599,-0.39687 0.79375,-0.99219 l 0.0331,-3.9026 c 0,0 -0.13231,-0.76068 -0.66148,-0.79375 l -5.29167,-0.13229 c 0,0 -0.62839,0.26458 -0.69453,0.59531 z"
           id="path1576-3-424" />
        <path
           style="fill:#000000;stroke:#000000;stroke-width:0.264583px;stroke-linecap:butt;stroke-linejoin:miter;stroke-opacity:1"
           d="m 114.71336,173.10398 -0.0662,4.63021 c 0,0 -0.0661,0.56224 0.95917,0.59531 h 4.92786 c 0,0 0.8599,-0.39687 0.79375,-0.99219 l 0.0331,-3.9026 c 0,0 -0.13231,-0.76068 -0.66148,-0.79375 l -5.29167,-0.13229 c 0,0 -0.62839,0.26458 -0.69453,0.59531 z"
           id="path1576-3-48" />
        <path
           style="fill:#000000;stroke:#000000;stroke-width:0.264583px;stroke-linecap:butt;stroke-linejoin:miter;stroke-opacity:1"
           d="m 106.87509,173.30241 -0.0662,4.63021 c 0,0 -0.0661,0.56224 0.95917,0.59531 h 4.92786 c 0,0 0.8599,-0.39687 0.79375,-0.99219 l 0.0331,-3.9026 c 0,0 -0.13231,-0.76068 -0.66148,-0.79375 l -5.29167,-0.13229 c 0,0 -0.62839,0.26458 -0.69453,0.59531 z"
           id="path1576-3-79" />
        <path
           style="fill:#000000;stroke:#000000;stroke-width:0.264583px;stroke-linecap:butt;stroke-linejoin:miter;stroke-opacity:1"
           d="m 98.9279,173.1387 -0.0662,4.63021 c 0,0 -0.0661,0.56224 0.95917,0.59531 h 4.92786 c 0,0 0.8599,-0.39687 0.79375,-0.99219 l 0.0331,-3.9026 c 0,0 -0.13231,-0.76068 -0.66148,-0.79375 l -5.29167,-0.13229 c 0,0 -0.62839,0.26458 -0.69453,0.59531 z"
           id="path1576-3-58" />
        <path
           style="fill:#000000;stroke:#000000;stroke-width:0.264583px;stroke-linecap:butt;stroke-linejoin:miter;stroke-opacity:1"
           d="m 95.234773,166.32228 -0.0662,4.63021 c 0,0 -0.0661,0.56224 0.95917,0.59531 h 4.927857 c 0,0 0.8599,-0.39687 0.79375,-0.99219 l 0.0331,-3.9026 c 0,0 -0.13231,-0.76068 -0.66148,-0.79375 l -5.291667,-0.13229 c 0,0 -0.62839,0.26458 -0.69453,0.59531 z"
           id="path1576-3-58-4" />
        <path
           style="fill:#000000;stroke:#000000;stroke-width:0.264583px;stroke-linecap:butt;stroke-linejoin:miter;stroke-opacity:1"
           d="m 103.18604,166.29889 -0.0662,4.63021 c 0,0 -0.0661,0.56224 0.95917,0.59531 h 4.92786 c 0,0 0.8599,-0.39687 0.79375,-0.99219 l 0.0331,-3.9026 c 0,0 -0.13231,-0.76068 -0.66148,-0.79375 l -5.29167,-0.13229 c 0,0 -0.62839,0.26458 -0.69453,0.59531 z"
           id="path1576-3-58-2" />
        <path
           style="fill:#000000;stroke:#000000;stroke-width:0.264583px;stroke-linecap:butt;stroke-linejoin:miter;stroke-opacity:1"
           d="m 111.27762,166.29889 -0.0662,4.63021 c 0,0 -0.0661,0.56224 0.95917,0.59531 h 4.92786 c 0,0 0.8599,-0.39687 0.79375,-0.99219 l 0.0331,-3.9026 c 0,0 -0.13231,-0.76068 -0.66148,-0.79375 l -5.29167,-0.13229 c 0,0 -0.62839,0.26458 -0.69453,0.59531 z"
           id="path1576-3-58-0" />
        <path
           style="fill:#000000;stroke:#000000;stroke-width:0.264583px;stroke-linecap:butt;stroke-linejoin:miter;stroke-opacity:1"
           d="m 119.36921,166.32227 -0.0662,4.63021 c 0,0 -0.0661,0.56224 0.95917,0.59531 h 4.92786 c 0,0 0.8599,-0.39687 0.79375,-0.99219 l 0.0331,-3.9026 c 0,0 -0.13231,-0.76068 -0.66148,-0.79375 l -5.29167,-0.13229 c 0,0 -0.62839,0.26458 -0.69453,0.59531 z"
           id="path1576-3-58-01" />
        <path
           style="fill:#000000;stroke:#000000;stroke-width:0.264583px;stroke-linecap:butt;stroke-linejoin:miter;stroke-opacity:1"
           d="m 127.39063,166.43921 -0.0662,4.63021 c 0,0 -0.0661,0.56224 0.95917,0.59531 h 4.92786 c 0,0 0.8599,-0.39687 0.79375,-0.99219 l 0.0331,-3.9026 c 0,0 -0.13231,-0.76068 -0.66148,-0.79375 l -5.29166,-0.13229 c 0,0 -0.62839,0.26458 -0.69454,0.59531 z"
           id="path1576-3-58-28" />
        <path
           style="fill:#000000;stroke:#000000;stroke-width:0.264583px;stroke-linecap:butt;stroke-linejoin:miter;stroke-opacity:1"
           d="m 134.80402,166.55613 -0.0662,4.63021 c 0,0 -0.0661,0.56224 0.95917,0.59531 h 4.92786 c 0,0 0.8599,-0.39687 0.79375,-0.99219 l 0.0331,-3.9026 c 0,0 -0.13231,-0.76068 -0.66148,-0.79375 l -5.29167,-0.13229 c 0,0 -0.62839,0.26458 -0.69453,0.59531 z"
           id="path1576-3-58-6" />
        <path
           style="fill:#000000;stroke:#000000;stroke-width:0.264583px;stroke-linecap:butt;stroke-linejoin:miter;stroke-opacity:1"
           d="m 143.03593,166.53275 -0.0662,4.63021 c 0,0 -0.0661,0.56224 0.95917,0.59531 h 4.92786 c 0,0 0.8599,-0.39687 0.79375,-0.99219 l 0.0331,-3.9026 c 0,0 -0.13231,-0.76068 -0.66148,-0.79375 l -5.29167,-0.13229 c 0,0 -0.62839,0.26458 -0.69453,0.59531 z"
           id="path1576-3-58-5" />
        <path
           style="fill:#000000;stroke:#000000;stroke-width:0.264583px;stroke-linecap:butt;stroke-linejoin:miter;stroke-opacity:1"
           d="m 150.80011,166.60291 -0.0662,4.63021 c 0,0 -0.0661,0.56224 0.95917,0.59531 h 4.92786 c 0,0 0.8599,-0.39687 0.79375,-0.99219 l 0.0331,-3.9026 c 0,0 -0.13231,-0.76068 -0.66148,-0.79375 l -5.29167,-0.13229 c 0,0 -0.62839,0.26458 -0.69453,0.59531 z"
           id="path1576-3-58-54" />
        <path
           style="fill:#000000;stroke:#000000;stroke-width:0.264583px;stroke-linecap:butt;stroke-linejoin:miter;stroke-opacity:1"
           d="m 158.72799,166.34566 -0.0662,4.63021 c 0,0 -0.0661,0.56224 0.95917,0.59531 h 4.92786 c 0,0 0.8599,-0.39687 0.79375,-0.99219 l 0.0331,-3.9026 c 0,0 -0.13231,-0.76068 -0.66148,-0.79375 l -5.29167,-0.13229 c 0,0 -0.62839,0.26458 -0.69453,0.59531 z"
           id="path1576-3-58-9" />
        <path
           style="fill:#000000;stroke:#000000;stroke-width:0.264583px;stroke-linecap:butt;stroke-linejoin:miter;stroke-opacity:1"
           d="m 166.84296,166.64968 -0.0662,4.63021 c 0,0 -0.0661,0.56224 0.95917,0.59531 h 4.92786 c 0,0 0.8599,-0.39687 0.79375,-0.99219 l 0.0331,-3.9026 c 0,0 -0.13231,-0.76068 -0.66148,-0.79375 l -5.29167,-0.13229 c 0,0 -0.62839,0.26458 -0.69453,0.59531 z"
           id="path1576-3-58-8" />
        <path
           style="fill:#000000;stroke:#000000;stroke-width:0.264583px;stroke-linecap:butt;stroke-linejoin:miter;stroke-opacity:1"
           d="m 174.3265,166.48598 -0.0662,4.63021 c 0,0 -0.0661,0.56224 0.95917,0.59531 h 4.92786 c 0,0 0.8599,-0.39687 0.79375,-0.99219 l 0.0331,-3.9026 c 0,0 -0.13231,-0.76068 -0.66148,-0.79375 l -5.29167,-0.13229 c 0,0 -0.62839,0.26458 -0.69453,0.59531 z"
           id="path1576-3-58-55" />
        <path
           style="fill:#000000;stroke:#000000;stroke-width:0.264583px;stroke-linecap:butt;stroke-linejoin:miter;stroke-opacity:1"
           d="m 182.34793,166.62629 -0.0662,4.63021 c 0,0 -0.0661,0.56224 0.95917,0.59531 h 4.92786 c 0,0 0.8599,-0.39687 0.79375,-0.99219 l 0.0331,-3.9026 c 0,0 -0.13231,-0.76068 -0.66148,-0.79375 l -5.29167,-0.13229 c 0,0 -0.62839,0.26458 -0.69453,0.59531 z"
           id="path1576-3-58-1" />
        <path
           style="fill:#000000;stroke:#000000;stroke-width:0.264583px;stroke-linecap:butt;stroke-linejoin:miter;stroke-opacity:1"
           d="m 87.400435,166.20535 -0.0662,4.63021 c 0,0 -0.0661,0.56224 0.95917,0.59531 h 4.92786 c 0,0 0.8599,-0.39687 0.79375,-0.99219 l 0.0331,-3.9026 c 0,0 -0.13231,-0.76068 -0.66148,-0.79375 l -5.29167,-0.13229 c 0,0 -0.62839,0.26458 -0.69453,0.59531 z"
           id="path1576-3-58-07" />
      </g>
      <g
         inkscape:groupmode="layer"
         id="layer19"
         inkscape:label="small buttons"
         sodipodi:insensitive="true">
        <path
           style="fill:#000000;stroke:#000000;stroke-width:0.264583px;stroke-linecap:butt;stroke-linejoin:miter;stroke-opacity:1"
           d="m 179.12291,198.07369 0.0992,2.38125 c 0,0 -0.16534,0.42995 0.79377,0.42995 l 5.42396,-0.0331 c 0,0 0.49609,-0.16534 0.56224,-0.62836 l 0.0331,-1.9513 c 0,0 -0.16539,-0.66146 -1.15758,-0.7276 l -5.22552,0.0661 c 0,0 -0.4961,0.19847 -0.52917,0.46306 z"
           id="path2941" />
        <path
           style="fill:#000000;stroke:#000000;stroke-width:0.264583px;stroke-linecap:butt;stroke-linejoin:miter;stroke-opacity:1"
           d="m 195.14676,198.22255 0.0992,2.38125 c 0,0 -0.16534,0.42995 0.79377,0.42995 l 5.42396,-0.0331 c 0,0 0.49609,-0.16534 0.56224,-0.62836 l 0.0331,-1.9513 c 0,0 -0.16539,-0.66146 -1.15758,-0.7276 l -5.22552,0.0661 c 0,0 -0.4961,0.19847 -0.52917,0.46306 z"
           id="path2941-4" />
        <path
           style="fill:#000000;stroke:#000000;stroke-width:0.264583px;stroke-linecap:butt;stroke-linejoin:miter;stroke-opacity:1"
           d="m 193.52619,162.47072 0.0992,2.38125 c 0,0 -0.16534,0.42995 0.79377,0.42995 l 5.42396,-0.0331 c 0,0 0.49609,-0.16534 0.56224,-0.62836 l 0.0331,-1.9513 c 0,0 -0.16539,-0.66146 -1.15758,-0.7276 l -5.22552,0.0661 c 0,0 -0.4961,0.19847 -0.52917,0.46306 z"
           id="path2941-8" />
        <path
           style="fill:#000000;stroke:#000000;stroke-width:0.264583px;stroke-linecap:butt;stroke-linejoin:miter;stroke-opacity:1"
           d="m 185.72098,162.23921 0.0992,2.38125 c 0,0 -0.16534,0.42995 0.79377,0.42995 l 5.42396,-0.0331 c 0,0 0.49609,-0.16534 0.56224,-0.62836 l 0.0331,-1.9513 c 0,0 -0.16539,-0.66146 -1.15758,-0.7276 l -5.22552,0.0661 c 0,0 -0.4961,0.19847 -0.52917,0.46306 z"
           id="path2941-9" />
        <path
           style="fill:#000000;stroke:#000000;stroke-width:0.264583px;stroke-linecap:butt;stroke-linejoin:miter;stroke-opacity:1"
           d="m 177.3866,162.33843 0.0992,2.38125 c 0,0 -0.16534,0.42995 0.79377,0.42995 l 5.42396,-0.0331 c 0,0 0.49609,-0.16534 0.56224,-0.62836 l 0.0331,-1.9513 c 0,0 -0.16539,-0.66146 -1.15758,-0.7276 l -5.22552,0.0661 c 0,0 -0.4961,0.19847 -0.52917,0.46306 z"
           id="path2941-1" />
        <path
           style="fill:#000000;stroke:#000000;stroke-width:0.264583px;stroke-linecap:butt;stroke-linejoin:miter;stroke-opacity:1"
           d="m 169.38296,162.23921 0.0992,2.38125 c 0,0 -0.16534,0.42995 0.79377,0.42995 l 5.42396,-0.0331 c 0,0 0.49609,-0.16534 0.56224,-0.62836 l 0.0331,-1.9513 c 0,0 -0.16539,-0.66146 -1.15758,-0.7276 l -5.22552,0.0661 c 0,0 -0.4961,0.19847 -0.52917,0.46306 z"
           id="path2941-5" />
        <path
           style="fill:#000000;stroke:#000000;stroke-width:0.264583px;stroke-linecap:butt;stroke-linejoin:miter;stroke-opacity:1"
           d="m 161.28009,162.27229 0.0992,2.38125 c 0,0 -0.16534,0.42995 0.79377,0.42995 l 5.42396,-0.0331 c 0,0 0.49609,-0.16534 0.56224,-0.62836 l 0.0331,-1.9513 c 0,0 -0.16539,-0.66146 -1.15758,-0.7276 l -5.22552,0.0661 c 0,0 -0.4961,0.19847 -0.52917,0.46306 z"
           id="path2941-3" />
        <path
           style="fill:#000000;stroke:#000000;stroke-width:0.264583px;stroke-linecap:butt;stroke-linejoin:miter;stroke-opacity:1"
           d="m 153.17723,162.10692 0.0992,2.38125 c 0,0 -0.16534,0.42995 0.79377,0.42995 l 5.42396,-0.0331 c 0,0 0.49609,-0.16534 0.56224,-0.62836 l 0.0331,-1.9513 c 0,0 -0.16539,-0.66146 -1.15758,-0.7276 l -5.22552,0.0661 c 0,0 -0.4961,0.19847 -0.52917,0.46306 z"
           id="path2941-91" />
        <path
           style="fill:#000000;stroke:#000000;stroke-width:0.264583px;stroke-linecap:butt;stroke-linejoin:miter;stroke-opacity:1"
           d="m 144.94207,162.13999 0.0992,2.38125 c 0,0 -0.16534,0.42995 0.79377,0.42995 l 5.42396,-0.0331 c 0,0 0.49609,-0.16534 0.56224,-0.62836 l 0.0331,-1.9513 c 0,0 -0.16539,-0.66146 -1.15758,-0.7276 l -5.22552,0.0661 c 0,0 -0.4961,0.19847 -0.52917,0.46306 z"
           id="path2941-2" />
        <path
           style="fill:#000000;stroke:#000000;stroke-width:0.264583px;stroke-linecap:butt;stroke-linejoin:miter;stroke-opacity:1"
           d="m 136.73998,162.20614 0.0992,2.38125 c 0,0 -0.16534,0.42995 0.79377,0.42995 l 5.42396,-0.0331 c 0,0 0.49609,-0.16534 0.56224,-0.62836 l 0.0331,-1.9513 c 0,0 -0.16539,-0.66146 -1.15758,-0.7276 l -5.22552,0.0661 c 0,0 -0.4961,0.19847 -0.52917,0.46306 z"
           id="path2941-39" />
        <path
           style="fill:#000000;stroke:#000000;stroke-width:0.264583px;stroke-linecap:butt;stroke-linejoin:miter;stroke-opacity:1"
           d="m 128.70327,162.07385 0.0992,2.38125 c 0,0 -0.16534,0.42995 0.79377,0.42995 l 5.42396,-0.0331 c 0,0 0.49609,-0.16534 0.56224,-0.62836 l 0.0331,-1.9513 c 0,0 -0.16539,-0.66146 -1.15758,-0.7276 l -5.22552,0.0661 c 0,0 -0.4961,0.19847 -0.52917,0.46306 z"
           id="path2941-17" />
        <path
           style="fill:#000000;stroke:#000000;stroke-width:0.264583px;stroke-linecap:butt;stroke-linejoin:miter;stroke-opacity:1"
           d="m 120.40196,162.10692 0.0992,2.38125 c 0,0 -0.16533,0.42995 0.79377,0.42995 l 5.42396,-0.0331 c 0,0 0.49609,-0.16534 0.56224,-0.62836 l 0.0331,-1.9513 c 0,0 -0.16539,-0.66146 -1.15758,-0.7276 l -5.22552,0.0661 c 0,0 -0.4961,0.19847 -0.52917,0.46306 z"
           id="path2941-6" />
        <path
           style="fill:#000000;stroke:#000000;stroke-width:0.264583px;stroke-linecap:butt;stroke-linejoin:miter;stroke-opacity:1"
           d="m 112.26603,162.0077 0.0992,2.38125 c 0,0 -0.16534,0.42995 0.79377,0.42995 l 5.42396,-0.0331 c 0,0 0.49609,-0.16534 0.56224,-0.62836 l 0.0331,-1.9513 c 0,0 -0.16539,-0.66146 -1.15758,-0.7276 l -5.22552,0.0661 c 0,0 -0.4961,0.19847 -0.52917,0.46306 z"
           id="path2941-0" />
        <path
           style="fill:#000000;stroke:#000000;stroke-width:0.264583px;stroke-linecap:butt;stroke-linejoin:miter;stroke-opacity:1"
           d="m 104.32853,161.87541 0.0992,2.38125 c 0,0 -0.16534,0.42995 0.79377,0.42995 l 5.42396,-0.0331 c 0,0 0.49609,-0.16534 0.56224,-0.62836 l 0.0331,-1.9513 c 0,0 -0.16539,-0.66146 -1.15758,-0.7276 l -5.22552,0.0661 c 0,0 -0.4961,0.19847 -0.52917,0.46306 z"
           id="path2941-18" />
        <path
           style="fill:#000000;stroke:#000000;stroke-width:0.264583px;stroke-linecap:butt;stroke-linejoin:miter;stroke-opacity:1"
           d="m 96.093375,161.87541 0.0992,2.38125 c 0,0 -0.16534,0.42995 0.79377,0.42995 l 5.423955,-0.0331 c 0,0 0.49609,-0.16534 0.56224,-0.62836 l 0.0331,-1.9513 c 0,0 -0.16539,-0.66146 -1.15758,-0.7276 l -5.225515,0.0661 c 0,0 -0.4961,0.19847 -0.52917,0.46306 z"
           id="path2941-90" />
        <path
           style="fill:#000000;stroke:#000000;stroke-width:0.264583px;stroke-linecap:butt;stroke-linejoin:miter;stroke-opacity:1"
           d="m 87.891292,161.74312 0.0992,2.38125 c 0,0 -0.16534,0.42995 0.79377,0.42995 l 5.42396,-0.0331 c 0,0 0.49609,-0.16534 0.56224,-0.62836 l 0.0331,-1.9513 c 0,0 -0.16539,-0.66146 -1.15758,-0.7276 l -5.22552,0.0661 c 0,0 -0.4961,0.19847 -0.52917,0.46306 z"
           id="path2941-64" />
        <path
           style="fill:#000000;stroke:#000000;stroke-width:0.382464px;stroke-linecap:butt;stroke-linejoin:miter;stroke-opacity:1"
           d="m 84.848584,194.74985 0.0992,4.97578 c 0,0 -0.16534,0.89841 0.79377,0.89841 l 5.42396,-0.0692 c 0,0 0.49609,-0.34551 0.56224,-1.31301 l 0.0331,-4.07736 c 0,0 -0.16539,-1.38217 -1.15758,-1.52037 l -5.22552,0.13811 c 0,0 -0.4961,0.41473 -0.52917,0.9676 z"
           id="path2941-95" />
        <path
           style="fill:#000000;stroke:#000000;stroke-width:0.382464px;stroke-linecap:butt;stroke-linejoin:miter;stroke-opacity:1"
           d="m 93.116733,194.73053 0.0992,4.97578 c 0,0 -0.16534,0.89841 0.79377,0.89841 l 5.423964,-0.0692 c 0,0 0.49609,-0.34551 0.56224,-1.31301 l 0.0331,-4.07736 c 0,0 -0.165435,-1.38217 -1.157629,-1.52037 l -5.22552,0.13811 c 0,0 -0.4961,0.41473 -0.52917,0.9676 z"
           id="path2941-95-9" />
        <path
           style="fill:#000000;stroke:#000000;stroke-width:0.382464px;stroke-linecap:butt;stroke-linejoin:miter;stroke-opacity:1"
           d="m 101.78184,194.73053 0.0992,4.97578 c 0,0 -0.16534,0.89841 0.79377,0.89841 l 5.42396,-0.0692 c 0,0 0.49609,-0.34551 0.56224,-1.31301 l 0.0331,-4.07736 c 0,0 -0.16539,-1.38217 -1.15758,-1.52037 l -5.22552,0.13811 c 0,0 -0.4961,0.41473 -0.52917,0.9676 z"
           id="path2941-95-2" />
        <path
           style="fill:#000000;stroke:#000000;stroke-width:0.415629px;stroke-linecap:butt;stroke-linejoin:miter;stroke-opacity:1"
           d="m 109.90127,194.90723 0.11771,4.95213 c 0,0 -0.19619,0.89414 0.94188,0.89414 l 6.43601,-0.0689 c 0,0 0.58866,-0.34387 0.66715,-1.30677 l 0.0393,-4.05798 c 0,0 -0.19625,-1.3756 -1.37357,-1.51314 l -6.20055,0.13745 c 0,0 -0.58867,0.41276 -0.62791,0.963 z"
           id="path2941-95-4" />
        <path
           style="fill:#000000;stroke:#000000;stroke-width:0.542064px;stroke-linecap:butt;stroke-linejoin:miter;stroke-opacity:1"
           d="m 85.90759,187.64024 0.235173,4.21606 c 0,0 -0.39197,0.76124 1.881783,0.76124 l 12.858534,-0.0586 c 0,0 1.17607,-0.29276 1.33289,-1.11253 l 0.0785,-3.45482 c 0,0 -0.39209,-1.17113 -2.744268,-1.28824 l -12.388092,0.11703 c 0,0 -1.1761,0.3514 -1.254498,0.81987 z"
           id="path2941-95-95" />
        <path
           style="fill:#000000;stroke:#000000;stroke-width:0.468295px;stroke-linecap:butt;stroke-linejoin:miter;stroke-opacity:1"
           d="m 86.429414,180.21159 0.17552,4.21606 c 0,0 -0.292544,0.76124 1.404452,0.76124 l 9.596858,-0.0586 c 0,0 0.87775,-0.29276 0.994791,-1.11253 l 0.05859,-3.45482 c 0,0 -0.292633,-1.17113 -2.048161,-1.28824 l -9.245747,0.11703 c 0,0 -0.877773,0.3514 -0.936284,0.81987 z"
           id="path2941-95-95-7" />
        <path
           style="fill:#000000;stroke:#000000;stroke-width:0.417567px;stroke-linecap:butt;stroke-linejoin:miter;stroke-opacity:1"
           d="m 86.934628,173.48114 0.145916,4.03218 c 0,0 -0.243202,0.72804 1.167576,0.72804 l 7.978233,-0.056 c 0,0 0.729707,-0.27999 0.827004,-1.06401 l 0.04872,-3.30414 c 0,0 -0.243273,-1.12006 -1.702713,-1.23206 l -7.686343,0.11193 c 0,0 -0.729726,0.33606 -0.778369,0.78411 z"
           id="path2941-95-95-5" />
        <path
           style="fill:#000000;stroke:#000000;stroke-width:0.542064px;stroke-linecap:butt;stroke-linejoin:miter;stroke-opacity:1"
           d="m 185.22873,187.58685 0.23517,4.21606 c 0,0 -0.39197,0.76124 1.88179,0.76124 l 12.85853,-0.0586 c 0,0 1.17607,-0.29276 1.33289,-1.11253 l 0.0785,-3.45482 c 0,0 -0.39209,-1.17113 -2.74427,-1.28824 l -12.38809,0.11703 c 0,0 -1.1761,0.3514 -1.2545,0.81987 z"
           id="path2941-95-95-1" />
        <path
           style="fill:#000000;stroke:#000000;stroke-width:0.37252px;stroke-linecap:butt;stroke-linejoin:miter;stroke-opacity:1"
           d="m 187.40629,195.07131 0.0916,5.11381 c 0,0 -0.15262,0.92335 0.7327,0.92335 l 5.00667,-0.0711 c 0,0 0.45793,-0.35509 0.51899,-1.34943 l 0.0306,-4.19049 c 0,0 -0.15267,-1.42049 -1.06852,-1.56254 l -4.82349,0.14195 c 0,0 -0.45794,0.42622 -0.48847,0.99445 z"
           id="path2941-95-95-3" />
        <path
           style="fill:#000000;stroke:#000000;stroke-width:0.457445px;stroke-linecap:butt;stroke-linejoin:miter;stroke-opacity:1"
           d="m 189.06474,180.42581 0.17238,4.09744 c 0,0 -0.28722,0.73982 1.37892,0.73982 l 9.42238,-0.0571 c 0,0 0.8618,-0.28452 0.97671,-1.08124 l 0.0576,-3.3576 c 0,0 -0.28732,-1.13817 -2.01093,-1.25199 l -9.07763,0.11373 c 0,0 -0.86182,0.34152 -0.91928,0.79681 z"
           id="path2941-95-95-3-4" />
        <path
           style="fill:#000000;stroke:#000000;stroke-width:0.422701px;stroke-linecap:butt;stroke-linejoin:miter;stroke-opacity:1"
           d="m 190.56483,166.95873 0.1463,4.12236 c 0,0 -0.24376,0.74431 1.17029,0.74431 l 7.9968,-0.0574 c 0,0 0.73141,-0.28625 0.82893,-1.08782 l 0.0489,-3.37801 c 0,0 -0.24385,-1.14509 -1.70668,-1.2596 l -7.70421,0.11442 c 0,0 -0.73143,0.34359 -0.78019,0.80165 z"
           id="path2941-95-95-3-4-5" />
      </g>
      <path
         style="fill:none;stroke:#000000;stroke-width:0.264583px;stroke-linecap:butt;stroke-linejoin:miter;stroke-opacity:1"
         d="m 85.686611,160.56885 -3.227279,40.31761 c 0,0 0,2.24506 2.245064,1.91766 H 202.47671 c 0,0 1.82412,0.3274 1.87089,-1.49671 l -1.77734,-39.75634 c 0,0 -0.51449,-1.49671 -2.0112,-1.54348 L 87.651043,159.58664 c 0,0 -1.543483,-0.14032 -1.964432,0.98221 z"
         id="path1720" />
    </g>
    <g
       inkscape:groupmode="layer"
       id="layer20"
       inkscape:label="spojení počítače"
       sodipodi:insensitive="true">
      <path
         style="fill:#000000;stroke:#000000;stroke-width:0.264583px;stroke-linecap:butt;stroke-linejoin:miter;stroke-opacity:1"
         d="m 92.176247,156.19565 0.105237,-1.75396 c -0.03508,-0.44433 0.374175,-0.56127 0.374175,-0.56127 l 103.658771,0.44434 c 0.49115,1.13423 0.0702,2.66601 0.0702,2.66601 L 92.912908,156.46459 c 0,0 -0.596344,0.0468 -0.736661,-0.26894 z"
         id="path3977" />
    </g>
    <g
       inkscape:groupmode="layer"
       id="layer13"
       inkscape:label="ohraničení hořejšku počítače"
       sodipodi:insensitive="true">
      <path
         style="fill:#e6e6e6;stroke:#000000;stroke-width:0.264583px;stroke-linecap:butt;stroke-linejoin:miter;stroke-opacity:1"
         d="m 81.851293,153.41271 125.817127,0.60804 c 0,0 1.87089,-0.0468 1.96444,-1.44994 L 213.094,71.140467 c 0,0 -0.65481,-3.46114 -4.39659,-3.695001 L 77.875659,66.276162 c 0,0 -4.443358,0.935441 -4.49013,5.425569 l 5.285255,79.793319 c 0,0 0.327409,1.90597 3.180509,1.91766 z"
         id="path1896" />
    </g>
    <g
       inkscape:groupmode="layer"
       id="layer14"
       inkscape:label="ohraničení obrazovky"
       sodipodi:insensitive="true">
      <path
         style="fill:#808080;stroke:#000000;stroke-width:0.264583px;stroke-linecap:butt;stroke-linejoin:miter;stroke-opacity:1"
         d="M 85.405975,145.83561 203.17829,146.58397 205.5169,74.648377 81.102935,73.525845 Z"
         id="path990" />
    </g>
  </g>
  <g
     inkscape:groupmode="layer"
     id="layer9"
     inkscape:label="kniha"
     sodipodi:insensitive="true">
    <g
       inkscape:groupmode="layer"
       id="layer7"
       inkscape:label="záložka"
       sodipodi:insensitive="true">
      <path
         style="fill:#999999;stroke:none;stroke-width:0.264583px;stroke-linecap:butt;stroke-linejoin:miter;stroke-opacity:1"
         d="m 265.70781,207.83021 -0.52917,11.37708 v 0 c 0,0 0.4961,0.56224 1.68673,0.0827 0,0 0.97565,-10.50066 0.71107,-11.34402 z"
         id="path1384" />
    </g>
    <g
       inkscape:groupmode="layer"
       id="layer5"
       inkscape:label="kniha spodek"
       sodipodi:insensitive="true">
      <path
         style="fill:#e6e6e6;stroke:#000000;stroke-width:0.264583px;stroke-linecap:butt;stroke-linejoin:miter;stroke-opacity:1"
         d="m 218.8002,157.08432 2.80633,48.54951 c 0,0 0.91206,2.80634 3.64823,2.38539 l 35.50008,-0.11693 c 0,0 0.70158,-1e-5 0.74835,-0.98222 0,0 0.25725,1.30962 1.28624,0.93544 l 33.48887,-0.79512 c 0,0 2.33861,-0.65481 2.45554,-2.38538 l -8.04482,-48.94708 c 0,0 -0.53788,-1.07576 -2.99342,-0.95883 l -30.33175,-0.14031 c 0,0 -0.6548,0.0468 -1.333,0.72497 0,0 -3.74178,-1.19269 -4.74738,-0.8419 l -28.62456,-0.30402 c 0,0 -2.64263,0.79511 -3.85871,2.87648 z"
         id="path1117" />
    </g>
    <g
       inkscape:groupmode="layer"
       id="layer6"
       inkscape:label="kniha hořejšek"
       sodipodi:insensitive="true">
      <path
         style="fill:#e6e6e6;stroke:#000000;stroke-width:0.264583px;stroke-linecap:butt;stroke-linejoin:miter;stroke-opacity:1"
         d="m 223.71127,204.20728 c 0,0 -0.0337,1.93406 5.3788,1.96443 l 27.26818,-0.28063 c 0,0 5.05139,0 5.14494,1.02899 0,0 0.3274,-1.28624 5.05139,-1.19269 l 29.79387,-1.14592 c 0,0 2.26845,-0.37418 2.16322,-2.64263 l -7.4017,-44.78435 c 0,0 -0.44433,-2.6894 -1.96443,-2.36199 l -31.29058,-0.18709 c 0,0 -0.93544,-0.0935 -1.82411,0.74836 0,0 -3.41437,-1.09915 -4.74738,-0.8419 l -28.62456,-0.30402 c 0,0 -1.66042,0.72497 -1.61364,1.91766 z"
         id="path3159"
         sodipodi:nodetypes="cccc" />
    </g>
    <g
       inkscape:groupmode="layer"
       id="layer8"
       inkscape:label="rozdělení stran"
       sodipodi:insensitive="true">
      <path
         style="fill:none;stroke:#000000;stroke-width:0.264583px;stroke-linecap:butt;stroke-linejoin:miter;stroke-opacity:1"
         d="m 261.50319,206.92007 -5.47234,-51.56631"
         id="path1486" />
    </g>
  </g>
  <g
     inkscape:groupmode="layer"
     id="layer4"
     inkscape:label="telefon"
     sodipodi:insensitive="true">
    <g
       inkscape:groupmode="layer"
       id="layer2"
       inkscape:label="Vrstva 2"
       style="opacity:1"
       sodipodi:insensitive="true">
      <path
         style="fill:#999999;stroke:#000000;stroke-width:0.264583px;stroke-linecap:butt;stroke-linejoin:miter;stroke-opacity:1"
         d="m 233.3625,186.13437 10.58333,11.9724 c 0,0 3.57188,3.77031 7.47448,0.7276 l 27.25209,-19.97604 c 0,0 4.29948,-3.0427 1.65364,-6.87916 l -12.30312,-12.56771 c 0,0 -1.98438,-2.18281 -5.75469,1.45521 l -27.91354,19.64531 c 0,0 -3.04271,2.48046 -0.99219,5.62239 z"
         id="path966" />
      <path
         style="fill:#000000;stroke:#000000;stroke-width:0.264583px;stroke-linecap:butt;stroke-linejoin:miter;stroke-opacity:1"
         d="m 268.02292,159.6099 10.6164,10.74869 c 4.53099,3.70417 0.16537,6.61459 0.16537,6.61459 l -27.31823,20.20755 c -3.57188,2.87734 -6.08542,-0.29766 -6.08542,-0.29766 l -11.04636,-12.27005 c 0,0 -1.68671,-2.33164 0.51264,-4.15065"
         id="path1053" />
      <path
         style="fill:#000000;stroke:#000000;stroke-width:0.264583px;stroke-linecap:butt;stroke-linejoin:miter;stroke-opacity:1"
         d="m 268.02291,159.6099 c 0,0 -1.62057,-2.06706 -6.05234,1.48828 l -27.10325,19.36419"
         id="path878" />
      <path
         style="fill:#ffffff;stroke:#000000;stroke-width:0.264583px;stroke-linecap:butt;stroke-linejoin:miter;stroke-opacity:1"
         d="m 241.01697,187.13544 c 0,0 2.01121,-1.54348 3.8821,0.46772 0,0 1.02899,1.96443 -0.37418,2.94665 0,0 -1.26285,1.40317 -3.50791,0.14032 0,0 -1.77736,-1.30963 -1e-5,-3.55469 z"
         id="path1249" />
    </g>
    <g
       inkscape:groupmode="layer"
       id="layer3"
       inkscape:label="Vrstva 3"
       sodipodi:insensitive="true">
      <path
         style="fill:#b3b3b3;stroke:#000000;stroke-width:0.264583px;stroke-linecap:butt;stroke-linejoin:miter;stroke-opacity:1"
         d="m 238.91875,179.28828 14.08906,15.18047 22.9526,-16.86719 -14.08906,-14.91588 z"
         id="path2752" />
    </g>
  </g>
</svg>
